<?xml version="1.0" standalone="no"?>
<!DOCTYPE svg PUBLIC "-//W3C//DTD SVG 20010904//EN"
 "http://www.w3.org/TR/2001/REC-SVG-20010904/DTD/svg10.dtd">
<svg version="1.0" xmlns="http://www.w3.org/2000/svg"
 width="48.000000pt" height="48.000000pt" viewBox="0 0 48.000000 48.000000"
 preserveAspectRatio="xMidYMid meet">

<g transform="translate(0.000000,48.000000) scale(0.100000,-0.100000)"
fill="#000000" stroke="none">
<path d="M335 466 c-14 -10 -23 -11 -37 -3 -14 9 -22 6 -43 -13 -16 -15 -36
-24 -49 -22 -41 5 -117 -111 -131 -199 -4 -21 1 -13 14 23 29 89 85 168 117
168 11 0 2 -23 -26 -67 -17 -26 -30 -51 -30 -57 0 -5 16 17 36 50 40 67 82
114 101 114 21 0 16 -17 -27 -87 -22 -37 -40 -72 -40 -77 0 -6 12 9 26 34 62
109 104 154 126 132 6 -6 -2 -27 -25 -58 -35 -50 -71 -114 -63 -114 2 0 17 24
34 53 37 65 68 95 84 79 8 -8 3 -23 -20 -59 -17 -26 -38 -65 -48 -85 -14 -30
-23 -38 -45 -38 -90 0 -150 -79 -99 -130 35 -35 120 -23 120 17 0 14 -46 18
-54 4 -3 -4 6 -6 21 -3 19 4 24 1 21 -9 -7 -21 -82 -24 -102 -4 -42 42 2 104
79 113 44 4 47 7 72 55 14 28 37 68 51 89 22 34 23 40 10 56 -8 9 -18 25 -21
35 -8 21 -26 22 -52 3z"/>
<path d="M262 193 c-44 -13 -52 -19 -50 -36 2 -11 9 -22 16 -23 7 -1 8 0 2 3
-25 12 -6 33 42 48 67 20 95 19 107 -2 6 -10 11 -13 11 -7 1 35 -44 41 -128
17z"/>
<path d="M62 165 c0 -16 2 -22 5 -12 2 9 2 23 0 30 -3 6 -5 -1 -5 -18z"/>
<path d="M391 144 c0 -11 3 -14 6 -6 3 7 2 16 -1 19 -3 4 -6 -2 -5 -13z"/>
<path d="M70 120 c-1 -52 90 -120 161 -120 51 1 116 34 139 72 11 18 20 38 20
43 0 6 -10 -7 -22 -28 -63 -108 -232 -98 -284 18 -7 17 -13 23 -14 15z"/>
</g>
</svg>
